<?xml version="1.0" encoding="utf-8"?>
<!-- Generator: Adobe Illustrator 28.0.0, SVG Export Plug-In . SVG Version: 6.00 Build 0)  -->
<svg version="1.1" id="레이어_1" xmlns="http://www.w3.org/2000/svg" xmlns:xlink="http://www.w3.org/1999/xlink" x="0px"
	 y="0px" viewBox="0 0 30 30" style="enable-background:new 0 0 30 30;" xml:space="preserve">
<g>
	<path d="M25.1,5.9l-3.3,1.2l-3.5-1.5c-0.4-0.2-0.8-0.2-1.1-0.2c-0.4,0-0.8,0.2-1.1,0.4c-1.1,0.8-2.4,1.5-3.7,2
		c-0.1,0-0.2,0.1-0.2,0.2C12,8.2,12,8.3,12,8.4c0,0.1,0,0.2,0.1,0.3c0.1,0.1,0.2,0.2,0.3,0.2c0.9,0.3,1.9,0.4,2.8,0.3
		c1-0.1,1.9-0.4,2.7-0.9l8.2,7.6c0.2,0.2,0.3,0.3,0.4,0.6l2.5-2.7L25.1,5.9z"/>
	<path d="M25.5,16.2l-7.7-6.8c-1.7,0.8-3.7,1-5.5,0.4c-0.2-0.1-0.4-0.2-0.5-0.3c-0.1-0.1-0.2-0.3-0.3-0.5c-0.1-0.3-0.1-0.7,0.1-1
		c0.1-0.3,0.4-0.5,0.7-0.6c1-0.4,2-0.8,2.9-1.4c-1.1-0.2-2.3-0.1-3.4,0.2c-1.5,0.1-3.1,0.1-4.6,0.1L5.3,5.5L1,13.2l2.3,1.9l1.2-1
		c0.3-0.3,0.8-0.4,1.2-0.4c0.5,0,1,0.2,1.4,0.6c0.4,0.4,0.5,0.9,0.5,1.4l0.1-0.1c0.2-0.2,0.5-0.3,0.8-0.4c0.3-0.1,0.6-0.1,0.9,0
		c0.5,0.2,0.9,0.5,1.2,1c0.3,0.5,0.3,1,0.2,1.5c0.1,0,0.3,0,0.4,0c0.5,0.1,1,0.4,1.3,0.8c0.3,0.4,0.4,1,0.4,1.5
		c0.2-0.1,0.5-0.1,0.7,0c0.2,0,0.5,0.1,0.7,0.2c0.4,0.3,0.8,0.7,0.9,1.2c0.1,0.5,0.1,1.1-0.2,1.5l1.7,1.3c0.1,0.1,0.1,0.1,0.2,0.1
		c0.2,0.1,0.4,0.2,0.7,0.2c0.4,0,0.8-0.2,1.1-0.5c0.3-0.3,0.4-0.7,0.4-1.1c0-0.2,0-0.3-0.1-0.5c0.1,0.1,0.3,0.3,0.5,0.3
		c0.2,0.1,0.4,0.1,0.6,0.1c0.4,0,0.8-0.2,1.1-0.5c0.3-0.3,0.4-0.7,0.4-1.1c0-0.3-0.1-0.7-0.3-0.9c0.1,0.1,0.3,0.3,0.5,0.3
		c0.2,0.1,0.4,0.1,0.6,0.1c0.2,0,0.4,0,0.6-0.1c0.2-0.1,0.3-0.2,0.5-0.3c0.1-0.1,0.2-0.1,0.2-0.2c0.2-0.3,0.3-0.6,0.2-0.9
		c0-0.2-0.1-0.4-0.1-0.6l0.1,0.1c0.3,0.1,0.7,0.2,1,0.1c0.3-0.1,0.6-0.3,0.8-0.5c0.2-0.3,0.3-0.6,0.3-0.9c0-0.3-0.1-0.7-0.3-0.9
		C25.6,16.3,25.5,16.2,25.5,16.2z"/>
	<path d="M6.4,15c-0.1-0.1-0.2-0.2-0.3-0.3c-0.1-0.1-0.3-0.1-0.4-0.2c-0.2,0-0.3,0-0.5,0c-0.1,0-0.3,0.1-0.4,0.2L3.4,16
		C3.2,16.2,3,16.5,3,16.8c0,0.3,0.1,0.7,0.3,0.9c0.1,0.1,0.2,0.2,0.3,0.3s0.3,0.1,0.4,0.1c0.2,0,0.3,0,0.4,0c0.1,0,0.3-0.1,0.4-0.2
		l1.4-1.2c0.2-0.2,0.4-0.5,0.4-0.9C6.7,15.6,6.6,15.2,6.4,15z M9.6,16.5c-0.1-0.1-0.2-0.2-0.3-0.3C9.1,16.1,8.9,16,8.8,16
		c-0.2,0-0.3,0-0.5,0c-0.1,0-0.3,0.1-0.4,0.2l-2.5,2.2C5.2,18.7,5,19,5,19.3c0,0.3,0.1,0.7,0.2,0.9c0.1,0.1,0.2,0.2,0.3,0.3
		c0.1,0.1,0.3,0.1,0.4,0.2c0.2,0,0.3,0,0.5,0c0.1,0,0.3-0.1,0.4-0.2l2.5-2.2c0.2-0.2,0.4-0.5,0.4-0.9C9.8,17.1,9.8,16.7,9.6,16.5z
		 M11.5,19c-0.1-0.1-0.2-0.2-0.3-0.3c-0.1-0.1-0.3-0.1-0.4-0.2s-0.3,0-0.5,0c-0.1,0-0.3,0.1-0.4,0.2l-2,1.7
		c-0.2,0.2-0.4,0.5-0.4,0.9c0,0.3,0.1,0.7,0.2,0.9c0.1,0.1,0.2,0.2,0.3,0.3c0.1,0.1,0.3,0.1,0.4,0.2c0.2,0,0.3,0,0.5,0
		c0.1,0,0.3-0.1,0.4-0.2l2-1.7c0.2-0.2,0.4-0.5,0.4-0.9S11.7,19.3,11.5,19z M12.1,21.1l-1.3,1.1c-0.2,0.2-0.4,0.5-0.4,0.9
		c0,0.3,0.1,0.7,0.2,0.9c0.1,0.1,0.2,0.2,0.3,0.3c0.1,0.1,0.3,0.1,0.4,0.2c0.2,0,0.3,0,0.5,0c0.1,0,0.3-0.1,0.4-0.2l1.3-1.1
		c0.2-0.2,0.4-0.5,0.4-0.9c0-0.3-0.1-0.7-0.2-0.9c-0.1-0.1-0.2-0.2-0.3-0.3c-0.1-0.1-0.3-0.1-0.4-0.2c-0.2,0-0.3,0-0.5,0
		C12.4,20.9,12.2,21,12.1,21.1z"/>
</g>
</svg>
