<?xml version="1.0" encoding="utf-8"?>
<!-- Generator: Adobe Illustrator 28.0.0, SVG Export Plug-In . SVG Version: 6.00 Build 0)  -->
<svg version="1.1" id="레이어_1" xmlns="http://www.w3.org/2000/svg" xmlns:xlink="http://www.w3.org/1999/xlink" x="0px"
	 y="0px" viewBox="0 0 30 30" style="enable-background:new 0 0 30 30;" xml:space="preserve">
<g>
	<path d="M26.9,15.8C26.6,12,24.5,8.4,21.1,6C17.7,3.7,13.7,2.9,10,4C8.5,4.4,7.1,5.1,5.9,6.1C4.7,7.1,3.7,8.3,3,9.7
		c0.6,0.3,1.1,0.6,1.7,0.9c0.6-1.2,1.5-2.2,2.6-3c1.1-0.8,2.3-1.4,3.5-1.7c1.6-0.4,3.2-0.4,4.8-0.1c1.6,0.3,3.1,0.9,4.4,1.9
		s2.4,2.1,3.3,3.5c0.8,1.4,1.4,2.9,1.6,4.5c0.2,1.3,0,2.7-0.4,4c-0.4,1.3-1,2.5-1.9,3.5c0.5,0.4,1,0.9,1.5,1.4
		c1.1-1.2,1.9-2.5,2.3-4C26.9,19,27.1,17.4,26.9,15.8L26.9,15.8z"/>
	<path d="M23.9,15.8c-0.2-1.5-0.7-2.9-1.4-4.1s-1.7-2.4-2.9-3.2c-1.2-0.8-2.5-1.4-3.9-1.7c-1.4-0.3-2.9-0.3-4.3,0.1
		c-1.1,0.3-2.2,0.8-3.1,1.6C7.3,9.1,6.6,10,6,11l0.2,0.1c0.6,0.3,1.3,0.7,1.9,1.1l0.2,0.1c0.6,0.4,1.2,0.7,1.8,1.1l0.2,0.1
		c0.7,0.4,1.3,0.8,1.9,1.2l0.2,0.1c0.5,0.3,1,0.7,1.4,1c0.2-2.6,0.3-5.2,0.2-7.7c0,0,0-0.1,0-0.1c0,0,0-0.1,0.1-0.1
		c0,0,0.1-0.1,0.1-0.1c0,0,0.1,0,0.1,0s0.1,0,0.1,0c0,0,0.1,0,0.1,0.1c0,0,0.1,0.1,0.1,0.1c0,0,0,0.1,0,0.1c0,2.6-0.1,5.2-0.2,7.8
		c2.3-1.1,4.6-2.1,6.9-3c0,0,0.1,0,0.1,0c0,0,0.1,0,0.1,0c0,0,0.1,0,0.1,0.1c0,0,0.1,0.1,0.1,0.1c0,0,0,0.1,0,0.1c0,0,0,0.1,0,0.1
		s0,0.1-0.1,0.1c0,0-0.1,0.1-0.1,0.1c-2.3,0.9-4.6,1.9-6.9,2.9c0.5,0.3,0.9,0.7,1.4,1l0.2,0.2c0.6,0.5,1.2,0.9,1.8,1.4l0.1,0.1
		c0.6,0.5,1.1,0.9,1.7,1.4c0.1,0.1,0.2,0.1,0.2,0.2c0.6,0.5,1.1,1,1.6,1.4l0.1,0.1c0.8-0.9,1.3-2,1.7-3.1C24,18.2,24.1,17,23.9,15.8
		z M11.5,19.9l-0.1-0.1l-1.5-3l-1.6,3l-0.1,0.1c-0.1,0.2-0.2,0.5-0.2,0.7c0,0.2,0,0.5,0.1,0.7c0.1,0.2,0.2,0.4,0.4,0.6
		c0.2,0.2,0.4,0.3,0.6,0.4c0.2,0.1,0.4,0.2,0.7,0.2s0.5,0,0.7-0.1c0.2-0.1,0.4-0.2,0.6-0.4c0.2-0.2,0.3-0.4,0.4-0.6s0.1-0.5,0.1-0.7
		C11.6,20.5,11.6,20.2,11.5,19.9z M16.6,23.9l-0.1-0.1l-1.5-3l-1.6,3l-0.1,0.1c-0.1,0.3-0.2,0.6-0.2,0.9c0,0.3,0.1,0.6,0.3,0.9
		c0.2,0.3,0.4,0.5,0.6,0.6c0.3,0.1,0.6,0.2,0.9,0.2c0.3,0,0.6-0.1,0.9-0.2c0.3-0.1,0.5-0.4,0.6-0.6s0.3-0.6,0.3-0.9
		C16.8,24.5,16.7,24.2,16.6,23.9L16.6,23.9z"/>
</g>
</svg>
