<?xml version="1.0" encoding="utf-8"?>
<!-- Generator: Adobe Illustrator 28.0.0, SVG Export Plug-In . SVG Version: 6.00 Build 0)  -->
<svg version="1.1" id="레이어_1" xmlns="http://www.w3.org/2000/svg" xmlns:xlink="http://www.w3.org/1999/xlink" x="0px"
	 y="0px" viewBox="0 0 30 30" style="enable-background:new 0 0 30 30;" xml:space="preserve">
<g>
	<path d="M8.5,13.6c-0.1-0.1-0.2-0.2-0.3-0.3c-0.1-0.1-0.2-0.1-0.4-0.2c-0.1,0-0.3,0-0.4,0c-0.1,0-0.3,0.1-0.4,0.2
		c-0.2,0.2-0.4,0.4-0.5,0.7c-0.1,0.3,0,0.6,0.2,0.8l1.8,2.7L8,17.8c0,0-1.2-1.8-1.6-2.3c-1.1-1.7-1.6-4.3-1-6.8c0-0.2,0-0.3,0-0.5
		C5.3,7.9,5.2,7.8,5.1,7.7C4.9,7.6,4.7,7.5,4.6,7.5c-0.2,0-0.4,0-0.5,0.1C3.9,7.7,3.8,7.7,3.8,7.8C3.7,7.9,3.6,8,3.6,8.2
		C1.9,13.7,4.1,19.1,6.7,22C6.8,22.2,7,22.4,7,22.6c0.1,0.2,0.1,0.4,0.1,0.7l-0.3,3.3l5.5-0.1l0.4-3.1c0.3-0.5,0.4-1.2,0.4-1.8
		c0-0.6-0.2-1.2-0.5-1.7l-1.2-1.9L8.5,13.6z M17.3,23.3l0.4,3.1l5.5,0.1l-0.3-3.3c0-0.2,0-0.4,0.1-0.7c0.1-0.2,0.2-0.4,0.3-0.6
		c2.6-2.9,4.8-8.3,3.1-13.8c-0.1-0.2-0.2-0.4-0.4-0.5c-0.2-0.1-0.5-0.2-0.7-0.1c-0.2,0.1-0.4,0.2-0.6,0.4c-0.1,0.2-0.2,0.4-0.1,0.7
		c0.5,2.5,0.1,5.1-1,6.8C23.2,16,22,17.8,22,17.8l-0.5-0.3l1.8-2.7c0.2-0.2,0.2-0.5,0.2-0.8c-0.1-0.3-0.2-0.5-0.5-0.7
		c-0.1-0.1-0.3-0.1-0.4-0.2c-0.1,0-0.3,0-0.4,0c-0.1,0-0.3,0.1-0.4,0.2c-0.1,0.1-0.2,0.2-0.3,0.3l-2.8,4.3l-1.2,1.9
		c-0.3,0.5-0.5,1.1-0.5,1.7C16.9,22.2,17,22.8,17.3,23.3z"/>
	<path d="M20.9,5.5c-0.1-0.4-0.4-0.8-0.7-1.1c-0.3-0.3-0.7-0.6-1.1-0.7c-1.9-0.7-3.4,0.3-4.2,1.2c-0.8-1-2.1-1.8-3.8-1.2
		c-0.5,0.2-0.9,0.5-1.3,0.8S9.3,5.3,9.1,5.8C9,6.3,9,6.9,9.1,7.4c0.1,0.5,0.3,1,0.7,1.4c1.2,1.5,4.8,4.4,4.9,4.6
		c0.1,0.1,0.2,0.1,0.3,0.1c0.1,0,0.2,0,0.3-0.1c0.1-0.1,3.7-3.1,4.9-4.6C20.9,7.8,21.2,6.6,20.9,5.5z M20,7.1c0,0.1-0.1,0.2-0.1,0.2
		c-0.1,0.1-0.2,0.1-0.2,0.1h-0.1c-0.1,0-0.2-0.1-0.2-0.1c-0.1-0.1-0.1-0.2-0.1-0.2c0.1-0.2,0.1-0.5,0-0.7c0-0.2-0.2-0.5-0.3-0.7
		C18.7,5.2,18.3,5,17.8,5c0,0-0.1,0-0.1,0c0,0-0.1,0-0.1-0.1c0,0-0.1-0.1-0.1-0.1c0,0,0-0.1,0-0.1c0,0,0-0.1,0-0.1
		c0,0,0.1-0.1,0.1-0.1s0.1-0.1,0.1-0.1c0,0,0.1,0,0.1,0c0.7,0.1,1.3,0.3,1.7,0.8C19.8,5.4,20,5.7,20,6.1C20.1,6.4,20.1,6.8,20,7.1z"
		/>
</g>
</svg>
