<?xml version="1.0" encoding="utf-8"?>
<!-- Generator: Adobe Illustrator 28.0.0, SVG Export Plug-In . SVG Version: 6.00 Build 0)  -->
<svg version="1.1" id="레이어_1" xmlns="http://www.w3.org/2000/svg" xmlns:xlink="http://www.w3.org/1999/xlink" x="0px"
	 y="0px" viewBox="0 0 24 24" style="enable-background:new 0 0 24 24;" xml:space="preserve">
<style type="text/css">
	.st0{fill-rule:evenodd;clip-rule:evenodd;fill:#222222;}
	.st1{fill-rule:evenodd;clip-rule:evenodd;fill-opacity:0.2;}
	.st2{fill:none;stroke:#535353;stroke-width:0.1;}
</style>
<g>
	<path class="st0" d="M12.5,19.8l4.8-4.9c0.3-0.3,0.3-0.7,0-1c-0.2-0.3-0.6-0.3-0.9,0c0,0,0,0,0,0l-3.8,3.9V4.7
		C12.6,4.3,12.3,4,12,4c-0.4,0-0.7,0.3-0.7,0.7v13.1l-0.1-0.2l-3.6-3.7c-0.3-0.2-0.7-0.2-0.9,0c0,0,0,0,0,0c-0.2,0.3-0.2,0.7,0,0.9
		l4.8,4.9c0.1,0.1,0.3,0.2,0.5,0.2C12.2,20,12.3,19.9,12.5,19.8z"/>
	<path class="st1" d="M12.5,19.8l4.8-4.9c0.3-0.3,0.3-0.7,0-1c-0.2-0.3-0.6-0.3-0.9,0c0,0,0,0,0,0l-3.8,3.9V4.7
		C12.6,4.3,12.3,4,12,4c-0.4,0-0.7,0.3-0.7,0.7v13.1l-0.1-0.2l-3.6-3.7c-0.3-0.2-0.7-0.2-0.9,0c0,0,0,0,0,0c-0.2,0.3-0.2,0.7,0,0.9
		l4.8,4.9c0.1,0.1,0.3,0.2,0.5,0.2C12.2,20,12.3,19.9,12.5,19.8z"/>
	<path class="st2" d="M12.5,19.8l4.8-4.9c0.3-0.3,0.3-0.7,0-1c-0.2-0.3-0.6-0.3-0.9,0c0,0,0,0,0,0l-3.8,3.9V4.7
		C12.6,4.3,12.3,4,12,4c-0.4,0-0.7,0.3-0.7,0.7v13.1l-0.1-0.2l-3.6-3.7c-0.3-0.2-0.7-0.2-0.9,0c0,0,0,0,0,0c-0.2,0.3-0.2,0.7,0,0.9
		l4.8,4.9c0.1,0.1,0.3,0.2,0.5,0.2C12.2,20,12.3,19.9,12.5,19.8z"/>
</g>
</svg>
