<?xml version="1.0" encoding="UTF-8"?>
<svg xmlns="http://www.w3.org/2000/svg" viewBox="0 0 24 24">
  <path d="m12.5,19.8l4.8-4.9c.3-.3.3-.7,0-1-.2-.3-.6-.3-.9,0h0l-3.8,3.9V4.7c0-.4-.3-.7-.6-.7-.4,0-.7.3-.7.7v13.1l-.1-.2-3.6-3.7c-.3-.2-.7-.2-.9,0h0c-.2.3-.2.7,0,.9l4.8,4.9c.1.1.3.2.5.2.2.1.3,0,.5-.1Z" style="fill: #222; fill-rule: evenodd; stroke-width: 0px;"/>
  <path d="m12.5,19.8l4.8-4.9c.3-.3.3-.7,0-1-.2-.3-.6-.3-.9,0h0l-3.8,3.9V4.7c0-.4-.3-.7-.6-.7-.4,0-.7.3-.7.7v13.1l-.1-.2-3.6-3.7c-.3-.2-.7-.2-.9,0h0c-.2.3-.2.7,0,.9l4.8,4.9c.1.1.3.2.5.2.2.1.3,0,.5-.1Z" style="fill-rule: evenodd; stroke-width: 0px;"/>
  <path d="m12.5,19.8l4.8-4.9c.3-.3.3-.7,0-1-.2-.3-.6-.3-.9,0h0l-3.8,3.9V4.7c0-.4-.3-.7-.6-.7-.4,0-.7.3-.7.7v13.1l-.1-.2-3.6-3.7c-.3-.2-.7-.2-.9,0h0c-.2.3-.2.7,0,.9l4.8,4.9c.1.1.3.2.5.2.2.1.3,0,.5-.1Z" style="fill: none; stroke: #535353; stroke-width: .1px;"/>
</svg>