<?xml version="1.0" encoding="UTF-8"?>
<svg id="_레이어_1" data-name="레이어 1" xmlns="http://www.w3.org/2000/svg" viewBox="0 0 80.18 21">
  <path d="m0,.48v20.05h15.34v-5.14H6.3V.48H0Z" style="fill: #222; stroke-width: 0px;"/>
  <path d="m0,.48v20.05h15.34v-5.14H6.3V.48H0Z" style="stroke-width: 0px;"/>
  <path d="m36.45,12.77c0,5.56-3.06,8.23-9.3,8.23s-9.33-2.67-9.33-8.23V.48h6.3v10.92c0,2.05,0,4.6,3.06,4.6s2.98-2.55,2.98-4.6V.48h6.3v12.3h0Z" style="fill: #222; stroke-width: 0px;"/>
  <path d="m36.45,12.77c0,5.56-3.06,8.23-9.3,8.23s-9.33-2.67-9.33-8.23V.48h6.3v10.92c0,2.05,0,4.6,3.06,4.6s2.98-2.55,2.98-4.6V.48h6.3v12.3h0Z" style="stroke-width: 0px;"/>
  <path d="m46,13.79c0,.51.09.95.23,1.32.46,1.21,1.83,1.46,3.01,1.46,1.03,0,2.61-.34,2.61-1.82,0-1.04-.89-1.32-4.41-2.3-3.23-.9-6.93-1.77-6.93-5.81,0-4.63,4.04-6.63,8.25-6.63,4.44,0,8.36,1.66,8.53,6.54h-5.96c.11-.76-.23-1.26-.74-1.6-.51-.37-1.23-.51-1.86-.51-.86,0-2.26.22-2.26,1.35.11,1.43,3.04,1.74,5.93,2.53,2.89.79,5.76,2.11,5.76,5.78,0,5.22-4.9,6.91-9.45,6.91-2.32,0-8.93-.81-8.99-7.21h6.3Z" style="fill: #222; stroke-width: 0px;"/>
  <path d="m46,13.79c0,.51.09.95.23,1.32.46,1.21,1.83,1.46,3.01,1.46,1.03,0,2.61-.34,2.61-1.82,0-1.04-.89-1.32-4.41-2.3-3.23-.9-6.93-1.77-6.93-5.81,0-4.63,4.04-6.63,8.25-6.63,4.44,0,8.36,1.66,8.53,6.54h-5.96c.11-.76-.23-1.26-.74-1.6-.51-.37-1.23-.51-1.86-.51-.86,0-2.26.22-2.26,1.35.11,1.43,3.04,1.74,5.93,2.53,2.89.79,5.76,2.11,5.76,5.78,0,5.22-4.9,6.91-9.45,6.91-2.32,0-8.93-.81-8.99-7.21h6.3Z" style="stroke-width: 0px;"/>
  <path d="m73.88.48v6.96h-5.9V.48h-6.3v20.05h6.3v-7.95h5.9v7.95h6.3V.48h-6.3Z" style="fill: #222; stroke-width: 0px;"/>
  <path d="m73.88.48v6.96h-5.9V.48h-6.3v20.05h6.3v-7.95h5.9v7.95h6.3V.48h-6.3Z" style="stroke-width: 0px;"/>
</svg>