<?xml version="1.0" encoding="utf-8"?>
<!-- Generator: Adobe Illustrator 28.0.0, SVG Export Plug-In . SVG Version: 6.00 Build 0)  -->
<svg version="1.1" id="레이어_1" xmlns="http://www.w3.org/2000/svg" xmlns:xlink="http://www.w3.org/1999/xlink" x="0px"
	y="0px" viewBox="0 0 30 30" style="enable-background:new 0 0 30 30;" xml:space="preserve">
<g>
	<path d="M27.3,9.4c0.2,0,0.3,0,0.5-0.1c0.1-0.1,0.3-0.1,0.4-0.3c0.1-0.1,0.2-0.2,0.3-0.4s0.1-0.3,0.1-0.5c0-0.2,0-0.3-0.1-0.5
		s-0.1-0.3-0.3-0.4c-0.1-0.1-0.2-0.2-0.4-0.3C27.6,7,27.5,7,27.3,7c-0.3,0-0.6,0.1-0.8,0.4c-0.2,0.2-0.3,0.5-0.3,0.9
		c0,0.3,0.1,0.6,0.3,0.9C26.7,9.3,27,9.4,27.3,9.4z M9.2,21.2c-0.1-0.3-0.3-0.6-0.6-0.9c-0.3-0.3-0.6-0.5-0.9-0.6
		c-0.3-0.1-0.7-0.2-1-0.2c-0.4,0-0.7,0.1-1,0.2c-0.3,0.1-0.6,0.4-0.9,0.6c-0.2,0.3-0.4,0.6-0.6,0.9C4,21.6,4,22,4,22.3
		c0,0.4,0.1,0.7,0.2,1.1C4.5,24,5,24.5,5.7,24.8c0.7,0.3,1.4,0.3,2.1,0S9,24,9.2,23.3C9.5,22.6,9.5,21.9,9.2,21.2z M6.1,21.5
		c-0.1,0-0.2,0.1-0.3,0.2c-0.1,0.1-0.1,0.2-0.2,0.3c0,0.1-0.1,0.3-0.1,0.4c0,0.1,0,0.3,0.1,0.4c0,0.1,0.1,0.2,0,0.2
		c0,0.1-0.1,0.2-0.1,0.2c-0.1,0-0.2,0.1-0.2,0c-0.1,0-0.2-0.1-0.2-0.2C5,22.8,5,22.6,4.9,22.4c0-0.2,0-0.5,0.1-0.7
		c0.1-0.2,0.2-0.4,0.3-0.5c0.1-0.1,0.3-0.3,0.5-0.3c0,0,0.1,0,0.1,0c0,0,0.1,0,0.1,0c0,0,0.1,0,0.1,0.1c0,0,0.1,0.1,0.1,0.1
		c0,0,0,0.1,0,0.1c0,0,0,0.1,0,0.1c0,0,0,0.1-0.1,0.1C6.2,21.5,6.1,21.5,6.1,21.5L6.1,21.5z M3.1,20.2c0.4,0,0.8-0.2,1.1-0.5
		c0.3-0.3,0.5-0.7,0.5-1.1s-0.2-0.8-0.5-1.1C3.9,17.2,3.5,17,3.1,17S2.3,17.2,2,17.5c-0.3,0.3-0.5,0.7-0.5,1.1s0.2,0.8,0.5,1.1
		C2.3,20.1,2.7,20.2,3.1,20.2z"/>
	<path d="M26.5,15.3c0,0-0.1-0.8-0.2-1.1c-3.3,4.4-6.6,5.7-11.4,6.5h-0.1c-0.1,0-0.2,0-0.2-0.1c-0.1-0.1-0.1-0.1-0.1-0.2
		c0-0.1,0-0.2,0.1-0.2c0.1-0.1,0.1-0.1,0.2-0.1c4.7-0.8,8-2.1,11.3-6.7l-0.2-0.9c-0.1-0.4-0.2-0.7-0.4-1c-0.2-0.4-0.6-0.8-0.9-1.1
		c-0.3,0.1-0.6,0.2-0.9,0.3c-0.2,0-0.3,0-0.5,0c-0.7,0-1.3-0.2-1.8-0.7c-0.5-0.4-0.9-1-1-1.7c0,0,0-0.1,0-0.1
		c-0.2-0.1-0.4-0.1-0.7-0.1c-2.1-0.3-4.2-0.2-6.2,0.2S9.6,9.8,7.9,11c-1.1,0.8-2.7,2.4-3.2,3.7c-0.3,0.9-0.2,1.4,0,2.4
		c0.3,0.3,0.6,0.6,0.7,1c0.1,0.4,0.1,0.8,0,1.2l0.1-0.1C6.1,19,6.7,18.9,7.3,19c0.6,0.1,1.1,0.3,1.6,0.6C9.3,20,9.7,20.4,9.9,21
		c0.2,0.5,0.3,1.1,0.2,1.7c2,0.4,4,0.5,6.1,0.2l0.1,0c1.9-0.3,3.8-0.9,5.5-1.8C23.7,20,26.8,17.6,26.5,15.3z M12,18
		c-2,0-3.9-0.4-5.2-1c-0.1,0-0.1-0.1-0.1-0.1c0-0.1,0-0.1,0-0.2c0-0.1,0-0.1,0.1-0.2c0,0,0.1-0.1,0.2-0.1c0.1,0,0.2,0,0.2,0
		c2,1,5.1,1.3,8.3,0.6l0.1,0c3.6-0.7,6.6-2.4,7.7-4.4c0-0.1,0.1-0.1,0.2-0.2c0.1,0,0.2,0,0.2,0c0.1,0,0.1,0.1,0.2,0.2s0,0.2,0,0.2
		c-1.2,2.2-4.4,4-8.1,4.7h-0.1C14.4,17.9,13.2,18,12,18z"/>
	<path d="M25.5,7.1c-0.1-0.5-0.3-1-0.7-1.4S23.9,5.1,23.3,5c-0.5-0.1-1.1,0-1.5,0.3c-0.5,0.3-0.8,0.7-1.1,1.2s-0.3,1-0.2,1.6
		c0.1,0.5,0.4,1,0.8,1.4c0.4,0.4,0.9,0.6,1.4,0.6c0.5,0,1.1-0.1,1.5-0.4c0.4-0.3,0.8-0.6,1-1.1C25.5,8.1,25.5,7.6,25.5,7.1z
		 M22.5,6.7c-0.1,0-0.2,0-0.3,0.1C22.1,6.8,22,6.9,22,7c-0.1,0.1-0.1,0.2-0.1,0.3c0,0.1,0,0.2,0,0.4c0,0,0,0.1,0,0.1
		c0,0,0,0.1,0,0.1c0,0-0.1,0.1-0.1,0.1c0,0-0.1,0-0.1,0.1c0,0-0.1,0-0.1,0c0,0-0.1,0-0.1,0c0,0-0.1-0.1-0.1-0.1c0,0,0-0.1-0.1-0.1
		c-0.1-0.2-0.1-0.4,0-0.7c0-0.2,0.1-0.4,0.2-0.6c0.1-0.2,0.3-0.3,0.4-0.4C22,6.1,22.2,6,22.4,6c0.1,0,0.2,0,0.3,0.1s0.1,0.1,0.1,0.2
		c0,0.1,0,0.2-0.1,0.3C22.6,6.6,22.6,6.7,22.5,6.7L22.5,6.7z"/>
</g>
</svg>
