<?xml version="1.0" encoding="utf-8"?>
<!-- Generator: Adobe Illustrator 28.0.0, SVG Export Plug-In . SVG Version: 6.00 Build 0)  -->
<svg version="1.1" id="레이어_1" xmlns="http://www.w3.org/2000/svg" xmlns:xlink="http://www.w3.org/1999/xlink" x="0px"
	 y="0px" viewBox="0 0 30 30" style="enable-background:new 0 0 30 30;" xml:space="preserve">
<style type="text/css">
	.st0{fill-rule:evenodd;clip-rule:evenodd;}
</style>
<path class="st0" d="M25.8,6.2c-5.6,3-9,9.3-9,9.4c0,0.1-0.1,0.1-0.2,0.2c-0.1,0-0.2,0-0.3,0c0,0-0.1-0.1-0.1-0.1
	c0,0-0.1-0.1-0.1-0.1c0,0,0-0.1,0-0.1c0,0,0-0.1,0-0.1c0.1-0.3,3.6-6.6,9.3-9.7c0.1,0,0.2-0.1,0.3,0c0.1,0,0.2,0.1,0.2,0.2
	C26,5.9,26,6.1,25.8,6.2z M12.1,17.3c-0.1,0-0.2,0-0.3,0c-0.1,0-0.1-0.1-0.2-0.2c-1.4-4.5-7.4-7.7-7.5-7.8c0,0-0.1,0-0.1-0.1
	c0,0,0-0.1-0.1-0.1c0,0,0-0.1,0-0.1c0,0,0-0.1,0-0.1c0-0.1,0.1-0.1,0.2-0.2c0.1,0,0.2,0,0.3,0c0.3,0.1,6.3,3.4,7.8,8.2
	C12.4,17.1,12.3,17.3,12.1,17.3z M27.5,4.5c0-0.1-0.1-0.2-0.2-0.3C27.2,4.1,27.1,4.1,27,4c-0.1,0-1.5-0.2-3.4,0.1
	c-2.5,0.4-4.6,1.3-6,2.8c-1.4,1.5-2.3,3.6-2.7,6.3c-0.2,1.1-0.2,2.3-0.1,3.4c-0.3,0.5-0.5,1-0.6,1.6c-0.2-0.3-0.4-0.6-0.7-0.9l0,0
	c0.1-1.2,0.1-5.4-2.4-7.9C8.1,6.5,3.2,7,3,7C2.9,7,2.8,7,2.7,7.1C2.6,7.2,2.5,7.4,2.5,7.5c0,0.2-0.5,5.3,2.4,8.3
	c2.1,2.2,5.4,2.5,7,2.5c0.3,0,0.6,0,0.8,0c0.9,0.9,1.3,2.2,1.3,3.5v3.7c0,0.3,0.2,0.6,0.5,0.6c0.1,0,0.3-0.1,0.4-0.2
	c0.1-0.1,0.2-0.2,0.2-0.4v-6.2c0-0.7,0.2-1.4,0.6-2c1,0,2,0,3-0.2c2.5-0.4,4.6-1.3,6-2.8c1.4-1.5,2.3-3.6,2.7-6.3
	C27.6,6.1,27.5,4.6,27.5,4.5z"/>
</svg>
